<svg width="346" height="269" viewBox="0 0 346 269" fill="none" xmlns="http://www.w3.org/2000/svg">
<g clip-path="url(#clip0_594_4229)">
<path opacity="0.1" d="M339.273 71.5726C335.848 63.6241 331.22 56.25 325.551 49.7096L135.182 47.834L291.92 25.8195C281.795 21.7871 271.015 19.6483 260.117 19.5094C245.123 7.52475 226.662 0.700296 207.478 0.0511488C188.294 -0.597998 169.413 4.96285 153.644 15.9065C141.041 9.42796 127.071 6.0612 112.901 6.08785C70.6025 6.08785 35.355 35.3822 27.4489 74.2327L339.273 71.5726Z" fill="#07BEB8"/>
<path opacity="0.1" d="M345.967 104.153C345.975 93.6184 343.961 83.1797 340.034 73.4044L10.0978 108.036C6.69554 114.189 4.093 120.752 2.35335 127.565L104.523 142.798L0.0198975 153.91C3.16484 197.889 40.8671 232.618 86.9232 232.618C110.106 232.618 131.175 223.816 146.781 209.465C162.442 224.089 183.709 233.079 207.141 233.079C241.911 233.079 271.919 213.283 285.893 184.659C313.931 175.763 335.71 153.418 343.165 125.468L213.973 105.413H345.967C345.96 104.992 345.967 104.574 345.967 104.153Z" fill="#07BEB8"/>
<path d="M96.5669 269C138.781 269 173.002 263.39 173.002 256.471C173.002 249.551 138.781 243.941 96.5669 243.941C54.3531 243.941 20.1321 249.551 20.1321 256.471C20.1321 263.39 54.3531 269 96.5669 269Z" fill="#07BEB8"/>
<path d="M175.618 175.76C172.18 176.622 168.651 174.945 168.651 174.945C168.651 174.945 165.641 171.46 163.102 170.988C160.563 170.517 159.58 174.642 158.072 175.702C157.028 176.447 149.499 175.915 144.94 175.517L144.155 175.446C144.078 175.389 144 175.329 143.916 175.275C143.916 175.275 139.539 173.928 138.626 172.736C137.714 171.544 131.616 169.338 129.723 169.466C127.831 169.594 122.238 169.897 122.238 169.897C122.238 169.897 120.046 167.402 119.056 167.662C118.066 167.921 114.625 167.641 114.625 167.641C114.625 167.641 113.679 165.21 112.733 161.725C112.292 160.099 110.823 158.957 109.386 158.207C110.679 153.829 108.376 141.344 101.224 138.903C99.6646 138.371 98.8666 136.603 97.54 135.633C96.3514 134.768 94.4051 132.727 95.358 129.04C96.7049 123.878 100.045 115.75 100.045 115.75L102.533 110.78C102.301 111.132 102.038 111.462 101.746 111.767C102.082 111.336 102.419 110.911 102.709 110.554C105.192 111.809 107.9 112.555 110.675 112.75C113.484 113.884 116.288 114.885 117.379 114.848C119.874 114.76 126.238 117.945 126.238 117.945C126.238 117.945 141.549 122.323 144.731 122.676C147.913 123.03 149.462 118.891 149.462 118.891C149.462 118.891 151.115 110.733 148.179 108.571C145.243 106.409 143.536 116.316 143.536 116.316L123.504 109.096L122.268 108.447C123.228 107.431 123.99 106.246 124.514 104.951C124.824 104.18 125.107 103.298 125.844 102.914C126.043 102.816 126.257 102.753 126.477 102.729C126.66 102.717 126.844 102.717 127.026 102.729C130.501 102.941 133.488 105.675 136.97 105.689C137.097 105.689 137.225 105.689 137.353 105.689C138.017 105.687 138.665 105.488 139.215 105.116C139.526 104.864 139.781 104.55 139.966 104.194C140.15 103.838 140.259 103.449 140.286 103.049C140.235 103.157 140.179 103.263 140.118 103.365C140.209 102.87 140.209 102.362 140.118 101.867C139.902 100.685 139.286 99.6245 138.734 98.5571C138.578 98.3081 138.49 98.0225 138.478 97.7288C138.494 97.5755 138.54 97.4269 138.615 97.2921C138.69 97.1572 138.791 97.0389 138.912 96.9442C138.918 96.976 138.924 97.0075 138.933 97.0385C139.195 96.7916 139.487 96.5779 139.801 96.4021C140.652 95.844 141.38 95.1169 141.938 94.2661C142.496 93.4152 142.874 92.4586 143.047 91.4558C142.963 91.7049 142.862 91.9507 142.754 92.1932C143.272 90.4839 143.146 88.6441 142.401 87.0212C142.208 86.5593 141.899 86.1547 141.505 85.8461C140.249 84.9639 138.562 85.9033 137.03 86.0043C135.683 86.0919 134.377 85.4891 133.161 84.8797C131.087 83.8392 129.023 82.7146 127.296 81.1758C125.333 79.4148 123.875 77.1688 122.103 75.2193C120.332 73.2697 118.06 71.5322 115.423 71.3369C110.632 70.9665 106.113 75.7142 101.557 74.1653C99.3347 73.4145 97.8733 71.3605 96.3278 69.5961C94.7823 67.8317 92.6576 66.138 90.341 66.5185C88.7314 66.7879 87.3374 68.0371 85.7077 67.9899C84.8558 67.963 84.0645 67.5825 83.2564 67.3165C81.3001 66.6599 78.6198 66.9798 77.9228 68.926C77.7859 69.3224 77.7375 69.744 77.7812 70.1612C77.8248 70.5783 77.9593 70.9808 78.1754 71.3403C78.0723 71.4848 77.98 71.6368 77.8992 71.7948C77.7319 72.1033 77.6737 72.4593 77.7343 72.805C76.3495 74.048 75.3234 75.6396 74.7629 77.414C74.2024 79.1884 74.1281 81.0807 74.5476 82.8936C74.9671 84.7065 75.8652 86.3737 77.1482 87.7215C78.4312 89.0694 80.0521 90.0484 81.8422 90.5567C81.9062 90.8025 81.9702 91.0483 82.0308 91.2975C82.684 94.0485 83.0241 97.1463 82.0577 99.2339C81.9971 99.3619 81.9331 99.4865 81.8624 99.6077L81.7782 99.6447L81.8153 99.6818L81.7782 99.6447L81.657 99.5201L80.923 98.7524C80.8826 97.951 80.4314 95.8028 77.2932 91.816C73.1616 86.5666 72.3872 77.8793 72.3872 77.8793C72.3872 77.8793 71.3568 73.4077 72.3872 72.1181C73.4175 70.8285 75.1415 56.6291 75.1415 56.6291L77.9902 48.6354C77.9902 48.6354 91.8393 34.527 86.0714 32.8097C82.1553 31.6413 77.4851 37.6618 74.8924 41.6418C73.6189 43.5961 72.7954 45.8089 72.4815 48.1203L64.6528 69.5388C64.6528 69.5388 63.8783 72.1215 64.6528 76.5931C65.4272 81.0647 67.1479 88.9809 67.1479 88.9809L71.5252 100.076C71.5252 100.076 73.1381 104.867 72.9966 106.948C72.8047 107.073 72.1313 108.406 71.5488 109.618L71.1211 110.292L71.0908 110.564C70.8046 111.174 70.606 111.612 70.606 111.612C70.606 111.612 68.1681 118.807 70.2053 123.222C72.2424 127.636 72.3232 129.683 72.3232 129.683L73.8418 136.222L74.4748 141.947L79.9364 155.452L84.9669 162.634C84.9669 162.634 84.4955 167.924 83.4618 168.655C82.4281 169.386 82.9029 173.17 82.9029 173.17L82.2564 183.103C82.2564 183.103 80.2361 186.073 80.1081 190.888C79.9802 195.703 79.2461 197.084 79.2461 197.084C79.2461 197.084 78.9094 201.125 79.8488 202.976C80.7883 204.828 78.3437 206.761 78.3437 206.761L80.4415 213.964L79.6232 223.082C79.6232 223.082 80.0037 223.186 80.6334 223.344L80.5054 223.998L77.0844 241.271C77.0844 241.271 75.2358 246.006 75.1516 247.12L69.1715 257.919C69.1715 257.919 64.1814 262.865 66.5485 263.336C68.9156 263.808 75.7981 259.552 75.7981 259.552C75.7981 259.552 81.4752 253.444 83.711 252.888C85.9468 252.332 88.425 250.733 87.7112 248.413C86.9974 246.093 85.3542 242.564 86.9367 238.82C87.9469 236.463 90.0951 230.065 91.57 225.601C91.6508 225.355 91.7282 225.119 91.8057 224.89C92.1958 224.855 92.5815 224.782 92.9572 224.671C96.5702 223.553 98.4626 224.334 98.4626 224.334L104.914 198.229L106.332 185.13L115.366 192.666C117.153 194.157 119.372 195.034 121.696 195.168C125.255 195.377 130.808 195.892 134.828 197.134L136.512 190.124C136.512 190.124 141.327 190.299 142.36 188.663C142.781 187.989 143.195 187.417 143.536 186.979L144.317 186.858L165.628 183.561C169.584 183.561 175.005 180.891 175.005 180.891L178.318 180.248C178.318 180.248 183.261 179.258 183.706 178.44C184.15 177.622 179.063 174.904 175.618 175.76Z" fill="url(#paint0_linear_594_4229)"/>
<path d="M78.9161 70.613C79.5896 68.7139 82.2227 68.394 84.1386 69.0371C84.9265 69.2998 85.7043 69.6735 86.536 69.7106C88.1321 69.7577 89.4958 68.5321 91.0716 68.2728C93.3377 67.8957 95.4153 69.5523 96.9271 71.2797C98.439 73.007 99.8734 75.0172 102.049 75.7546C106.503 77.2564 110.928 72.6232 115.615 72.9835C118.187 73.1821 120.41 74.8758 122.144 76.785C123.878 78.6942 125.306 80.8896 127.225 82.6136C128.909 84.1288 130.929 85.2299 132.966 86.2501C134.155 86.8461 135.424 87.4354 136.751 87.3478C138.252 87.2502 139.902 86.3377 141.128 87.1929C141.514 87.4954 141.815 87.8919 142.003 88.3445C143.512 91.4827 142.296 95.6614 139.343 97.5066C138.828 97.8265 138.202 98.18 138.172 98.7962C138.181 99.084 138.267 99.3641 138.421 99.6077C138.96 100.652 139.566 101.692 139.768 102.847C139.97 104.002 139.697 105.332 138.758 106.032C138.144 106.44 137.416 106.64 136.68 106.601C133.272 106.584 130.35 103.908 126.949 103.702C126.514 103.652 126.073 103.72 125.673 103.897C124.952 104.271 124.663 105.137 124.37 105.891C122.794 109.827 118.881 112.565 114.706 113.315C110.531 114.066 106.17 113.009 102.432 111.002C102.159 110.872 101.908 110.699 101.688 110.49C101.376 110.111 101.156 109.665 101.045 109.187C99.9003 105.568 98.3514 101.78 95.1796 99.6885C93.1222 98.3416 90.3308 97.584 89.3981 95.3112C88.8122 93.8734 89.1793 92.2403 89.0311 90.6914C88.8853 89.3634 88.3678 88.1035 87.5381 87.0564C86.7084 86.0093 85.6001 85.2175 84.3406 84.7719C83.7884 84.5867 83.1823 84.4554 82.7783 84.0345C82.4502 83.6213 82.2407 83.1266 82.1722 82.6035C81.6705 80.3239 81.3371 77.9164 80.6368 75.6907C80.1014 73.9465 78.1989 72.6097 78.9161 70.613Z" fill="#663D5B"/>
<g opacity="0.1">
<path d="M139.151 104.985C138.536 105.387 137.808 105.582 137.074 105.541C133.67 105.541 130.747 102.847 127.346 102.645C126.911 102.594 126.471 102.66 126.07 102.837C125.346 103.211 125.06 104.076 124.767 104.83C123.191 108.77 119.275 111.507 115.1 112.258C110.924 113.009 106.564 111.952 102.83 109.945C102.557 109.814 102.306 109.641 102.086 109.433C101.774 109.054 101.554 108.608 101.443 108.13C100.298 104.507 98.7488 100.722 95.5769 98.6278C93.5162 97.2641 90.7248 96.5267 89.7955 94.2505C89.2062 92.8094 89.5732 91.1763 89.4284 89.6307C89.2831 88.3021 88.7654 87.0416 87.9349 85.9943C87.1045 84.947 85.9951 84.1556 84.7346 83.7113C84.1824 83.5261 83.5763 83.3914 83.1722 82.9738C82.8438 82.5599 82.6353 82.0637 82.5695 81.5394C82.0644 79.2632 81.7344 76.8523 81.0341 74.63C80.5627 73.1417 79.0777 71.9363 79.1518 70.347C79.1082 70.4309 79.07 70.5175 79.0373 70.6062C78.3168 72.603 80.2226 73.9397 80.7647 75.657C81.4651 77.8793 81.7951 80.2902 82.3001 82.5664C82.3659 83.0907 82.5744 83.5869 82.9029 84.0008C83.3069 84.4184 83.913 84.553 84.4652 84.7382C85.7262 85.1829 86.8359 85.9748 87.6664 87.0227C88.4969 88.0706 89.0143 89.3319 89.1591 90.6611C89.3038 92.2066 88.9368 93.8397 89.5261 95.2809C90.4554 97.5672 93.2468 98.3113 95.3075 99.6582C98.4727 101.756 100.022 105.537 101.173 109.16C101.285 109.638 101.505 110.084 101.816 110.463C102.036 110.672 102.287 110.844 102.56 110.975C106.295 112.996 110.642 114.036 114.83 113.288C119.019 112.541 122.912 109.8 124.498 105.861C124.801 105.106 125.08 104.241 125.801 103.867C126.201 103.69 126.642 103.624 127.077 103.675C130.478 103.881 133.4 106.558 136.805 106.571C137.54 106.61 138.268 106.411 138.882 106.005C139.186 105.759 139.437 105.452 139.617 105.104C139.798 104.757 139.905 104.376 139.933 103.985C139.763 104.38 139.493 104.724 139.151 104.985Z" fill="black"/>
<path d="M139.737 96.4493C139.222 96.786 138.592 97.1227 138.562 97.7389C138.559 97.8626 138.579 97.9858 138.619 98.1025C138.875 97.8605 139.16 97.6512 139.468 97.4796C140.301 96.9341 141.013 96.223 141.559 95.3906C142.105 94.5581 142.474 93.6222 142.643 92.641C142.145 94.2089 141.118 95.5551 139.737 96.4493Z" fill="black"/>
</g>
<path d="M87.728 236.86C86.169 240.524 87.7718 243.972 88.4856 246.248C89.1995 248.524 86.7617 250.076 84.573 250.625C82.3843 251.174 76.8285 257.148 76.8285 257.148C76.8285 257.148 70.0942 261.313 67.7775 260.851C65.4609 260.39 70.3433 255.548 70.3433 255.548L76.1955 244.982C76.2796 243.891 78.0878 239.258 78.0878 239.258L81.4348 222.355L81.8793 220.109L93.7452 219.391C93.7452 219.391 93.1222 221.317 92.2636 223.92C90.8191 228.298 88.7045 234.574 87.728 236.86Z" fill="#CC818C"/>
<path d="M182.43 177.777C182.009 178.578 177.17 179.544 177.17 179.544L173.928 180.174C173.928 180.174 168.624 182.787 164.752 182.787L143.896 186.016L141.098 186.45V174.618C141.098 174.618 142.505 174.766 144.498 174.955C148.953 175.345 156.324 175.864 157.344 175.137C158.819 174.086 159.785 170.046 162.267 170.51C164.749 170.975 167.698 174.382 167.698 174.382C167.698 174.382 171.15 176.022 174.517 175.18C177.884 174.339 182.851 176.975 182.43 177.777Z" fill="#CC818C"/>
<path opacity="0.1" d="M144.633 185.1C144.633 185.1 144.334 185.437 143.896 186.013L141.098 186.447V174.618C141.098 174.618 142.505 174.766 144.498 174.955C147.845 177.598 144.633 185.1 144.633 185.1Z" fill="black"/>
<path d="M104.355 182.366L115.558 191.713C117.307 193.172 119.479 194.03 121.753 194.161C125.235 194.367 130.67 194.868 134.616 196.087L136.259 189.225C136.259 189.225 140.973 189.393 141.983 187.794C142.577 186.85 143.237 185.949 143.96 185.1C143.96 185.1 147.371 177.147 143.498 174.706C143.498 174.706 139.205 173.399 138.32 172.221C137.434 171.042 131.461 168.897 129.609 169.022C127.757 169.147 122.285 169.443 122.285 169.443C122.285 169.443 120.137 167.002 119.171 167.254C118.204 167.507 114.834 167.254 114.834 167.254C114.834 167.254 113.908 164.874 112.982 161.463C112.056 158.052 106.544 156.833 106.544 156.833L104.355 182.366Z" fill="#565987"/>
<path opacity="0.1" d="M104.355 182.366L115.558 191.713C117.307 193.172 119.479 194.03 121.753 194.161C125.235 194.367 130.67 194.868 134.616 196.087L136.259 189.225C136.259 189.225 140.973 189.393 141.983 187.794C142.577 186.85 143.237 185.949 143.96 185.1C143.96 185.1 147.371 177.147 143.498 174.706C143.498 174.706 139.205 173.399 138.32 172.221C137.434 171.042 131.461 168.897 129.609 169.022C127.757 169.147 122.285 169.443 122.285 169.443C122.285 169.443 120.137 167.002 119.171 167.254C118.204 167.507 114.834 167.254 114.834 167.254C114.834 167.254 113.908 164.874 112.982 161.463C112.056 158.052 106.544 156.833 106.544 156.833L104.355 182.366Z" fill="black"/>
<path d="M99.3447 98.5639L98.1056 98.7962H98.0281L97.8463 98.8299L95.725 99.2238L95.0718 99.9983L95.0448 100.025L92.9471 102.51L91.1793 104.244L91.1625 104.264L89.6674 105.719L87.1387 108.234L86.7144 109.282L85.7918 111.602L85.5528 112.191L83.0274 114.885L81.4145 118.336L77.6433 120.525L73.5858 118.42L71.7339 115.726L72.1548 111.868L72.239 111.096L73.4747 109.113L74.596 107.308L76.7846 104.194L80.9936 101.332L81.7479 101.133L82.593 100.911C82.6576 100.819 82.7172 100.723 82.7715 100.625C82.8428 100.506 82.9069 100.384 82.9634 100.258C83.9096 98.217 83.5762 95.1832 82.9365 92.4928C82.4461 90.4802 81.7965 88.5098 80.9936 86.6003L92.1053 85.0009C92.1053 85.0009 91.9975 87.1559 91.9975 90.5163C91.9975 91.3581 91.9975 92.2706 92.0211 93.2471C92.075 96.2775 94.8899 97.5907 97.0146 98.1497C97.5617 98.2955 98.1172 98.4079 98.678 98.4864C99.0888 98.5504 99.3447 98.5639 99.3447 98.5639Z" fill="#CC818C"/>
<path d="M81.8355 100.153C81.8355 100.153 82.3405 98.1329 78.2999 92.9979C74.2593 87.863 73.5017 79.3609 73.5017 79.3609C73.5017 79.3609 72.4916 74.9836 73.5017 73.7209C74.5119 72.4582 76.1955 58.5686 76.1955 58.5686L78.9734 50.7399C78.9734 50.7399 92.5262 36.9345 86.8862 35.2509C83.0544 34.1061 78.4683 40.002 75.9463 43.8945C74.7006 45.8072 73.8955 47.9729 73.5893 50.2348L65.9256 71.1955C65.9256 71.1955 65.168 73.7209 65.9256 78.0982C66.6832 82.4755 68.3668 90.22 68.3668 90.22L72.6599 101.089C72.6599 101.089 74.9193 107.857 73.7475 108.682L76.3638 104.813L81.8355 100.153Z" fill="#CC818C"/>
<path d="M148.926 119.524C148.926 119.524 147.411 123.565 144.297 123.228C141.182 122.892 126.198 118.599 126.198 118.599C126.198 118.599 119.969 115.484 117.528 115.568C115.086 115.652 103.89 110.433 103.89 110.433C103.89 110.433 103.103 111.47 102.224 112.561C101.267 113.757 100.203 115.019 99.934 115.063C99.429 115.147 91.6003 116.242 91.6003 116.242L86.297 113.8L85.7919 111.602L85.5529 110.591L86.728 109.282L88.2735 107.561L91.1727 104.254L91.1895 104.234L95.0584 100.029L95.0853 100.002L97.5636 98.9915L98.0417 98.7962H98.1191C98.4154 98.7457 99.5536 98.6413 101.079 99.5033C102.141 100.105 103.321 100.47 104.537 100.574C106.958 100.747 109.25 101.729 111.046 103.362L123.504 109.918L143.118 116.989C143.118 116.989 144.802 107.308 147.664 109.413C150.526 111.517 148.926 119.524 148.926 119.524Z" fill="#CC818C"/>
<path opacity="0.1" d="M102.224 112.561C101.267 113.757 100.203 115.019 99.934 115.063C99.4289 115.147 91.6002 116.242 91.6002 116.242L86.2969 113.8L85.7918 111.602L85.5528 112.191L83.0274 114.885L81.4145 118.336L77.6433 120.525L73.5858 118.42L71.7339 115.726L72.1548 111.868C72.3669 111.41 72.9461 110.164 73.4747 109.113C73.7245 108.534 74.0385 107.985 74.4108 107.477C74.7475 107.255 75.1011 104.867 75.1011 104.867C76.6298 100.46 81.7512 99.7828 81.7512 99.7828L82.5694 100.55L82.9264 100.921C82.7816 100.897 82.9533 100.584 82.7681 100.635C82.4718 100.719 82.3405 101.167 81.96 101.412C79.8892 102.759 76.6533 105.901 75.3738 107.393C75.064 107.753 74.7441 108.106 74.4175 108.45C72.5689 110.406 72.909 112.999 72.909 112.999C72.4477 115.019 76.5287 116.534 76.5287 116.534C77.6668 114.642 85.3676 109.423 85.3676 109.423L90.553 103.615C92.1423 100.847 95.2671 99.0184 97.0112 98.1632C97.7823 97.786 98.2874 97.5975 98.2874 97.5975L100.227 98.4258C99.7148 98.2886 99.1729 98.3121 98.6746 98.4931C98.3884 98.5817 98.1102 98.6943 97.8429 98.8299C97.7419 98.8804 97.6409 98.9342 97.5466 98.9915C97.0162 99.2994 96.5177 99.6592 96.0583 100.066L91.7012 104.823C88.3711 108.457 90.8796 114.332 95.8058 114.416H95.8496C98.8598 115.11 101.018 113.716 102.224 112.561Z" fill="black"/>
<path opacity="0.1" d="M93.7452 219.402C93.7452 219.402 93.1223 221.328 92.2636 223.93C88.9705 224.176 83.5326 222.903 81.4348 222.365L81.8793 220.119L93.7452 219.402Z" fill="black"/>
<path d="M82.9298 100.921L81.8523 99.8164C81.8523 99.8164 77.9632 100.348 75.5489 104.504C75.5489 104.504 74.4209 107.618 74.0741 107.84C73.7273 108.063 71.7339 112.416 71.7339 112.416C71.7339 112.416 69.35 119.457 71.34 123.781C73.33 128.104 73.4175 130.094 73.4175 130.094L74.9058 136.492L75.522 142.101L80.8691 155.318L85.7919 162.331C85.7919 162.331 85.3306 167.507 84.3204 168.224C83.3103 168.941 83.7716 172.642 83.7716 172.642L83.1419 182.366C83.1419 182.366 81.162 185.269 81.0374 189.983C80.9128 194.697 80.1956 196.043 80.1956 196.043C80.1956 196.043 79.8589 200 80.7849 201.811C81.7108 203.623 79.3101 205.515 79.3101 205.515L81.3741 212.543L80.5727 221.466C80.5727 221.466 90.085 224.119 93.6205 223.025C97.1561 221.93 99.008 222.688 99.008 222.688L105.321 197.128L107.51 177.053C107.51 177.053 107.638 162.826 109.53 158.489C111.153 154.786 109.025 141.59 101.715 139.098C100.19 138.579 99.4154 136.849 98.1123 135.899C96.9473 135.054 95.0448 133.057 95.9776 129.448C97.284 124.397 100.567 116.444 100.567 116.444L102.998 111.602C102.998 111.602 100.355 115.878 95.5163 114.784H95.4725C90.5463 114.696 88.0378 108.82 91.3679 105.19L95.725 100.429C95.725 100.429 98.1258 98.217 99.8936 98.776L97.9575 97.9477C97.9575 97.9477 92.506 99.968 90.213 103.965L85.0275 109.773C85.0275 109.773 77.3335 114.969 76.1954 116.875C76.1954 116.875 72.1144 115.359 72.5757 113.339C72.5757 113.339 72.239 110.743 74.0842 108.787C74.4209 108.45 74.7307 108.093 75.0405 107.733C76.7005 105.793 81.2899 100.648 82.9298 100.921Z" fill="#565987"/>
<path opacity="0.1" d="M83.5629 135.603C83.5629 135.603 82.3406 144.485 83.2666 146.294L83.5629 135.603Z" fill="black"/>
<path opacity="0.1" d="M84.3608 139.054L85.6673 144.149C85.6673 144.149 86.1286 141.034 84.3608 139.054Z" fill="black"/>
<path opacity="0.1" d="M76.6163 137.865C76.6163 137.865 79.2259 150.829 82.088 154.745L76.6163 137.865Z" fill="black"/>
<path opacity="0.1" d="M95.0111 153.493C95.0111 153.493 90.5496 157.702 88.8223 157.395C88.8223 157.395 95.6846 157.691 97.8295 154.072C97.8295 154.082 96.4422 153.072 95.0111 153.493Z" fill="black"/>
<path opacity="0.1" d="M101.197 153.156C101.197 153.156 95.4725 157.321 94.3378 157.701C94.3378 157.701 100.523 155.934 101.197 153.156Z" fill="black"/>
<path opacity="0.1" d="M81.8355 122.218C81.8355 122.218 78.9734 125.882 77.5424 125.461C77.5424 125.461 81.0375 125.585 81.8355 122.218Z" fill="black"/>
<path opacity="0.1" d="M85.078 126.932C85.078 126.932 91.3073 118.474 94.2535 118.811C94.2535 118.811 87.1825 124.956 85.078 126.932Z" fill="black"/>
<path opacity="0.1" d="M93.7047 123.855C93.7047 123.855 89.7483 125.838 90.1692 126.417C90.5901 126.996 93.7047 123.855 93.7047 123.855Z" fill="black"/>
<path opacity="0.1" d="M96.5668 188.804C96.5668 188.804 83.3506 196.508 82.1317 196.885C82.1317 196.885 84.4046 198.613 86.5494 197.771C88.6943 196.929 96.5668 188.804 96.5668 188.804Z" fill="black"/>
<path opacity="0.1" d="M85.499 204.842C85.499 204.842 80.1957 204.293 80.4044 206.02C80.6132 207.748 85.499 204.842 85.499 204.842Z" fill="black"/>
<path opacity="0.1" d="M92.1053 85.0009C92.1053 85.0009 91.9976 87.1559 91.9976 90.5163C90.7508 91.5381 89.2794 92.2497 87.7044 92.5927C86.1293 92.9357 84.4953 92.9003 82.9365 92.4895C82.4462 90.4769 81.7965 88.5065 80.9937 86.5969L92.1053 85.0009Z" fill="black"/>
<path d="M85.5393 92.1696C91.1647 92.1696 95.725 87.6093 95.725 81.9839C95.725 76.3585 91.1647 71.7982 85.5393 71.7982C79.9139 71.7982 75.3536 76.3585 75.3536 81.9839C75.3536 87.6093 79.9139 92.1696 85.5393 92.1696Z" fill="#CC818C"/>
<path opacity="0.1" d="M88.2095 88.1997C88.4957 92.3649 89.3712 97.1294 92.9876 99.2238C95.6005 100.736 98.8936 100.338 101.786 99.4764C104.678 98.6144 107.51 97.3281 110.52 97.1833C112.834 97.0722 115.12 97.6413 117.426 97.786C119.733 97.9308 122.258 97.5705 123.905 95.9476C126.262 93.6377 125.831 89.4388 123.599 87.0111C121.366 84.5834 117.874 83.7012 114.568 83.7921C110.527 83.9032 106.015 85.1389 102.82 82.6876C100.675 81.0377 99.8633 78.1756 98.0585 76.1587C95.0449 72.7915 81.7176 67.9293 78.8959 73.4178C77.5726 75.987 83.5864 77.8221 84.9804 79.6808C87.1826 82.6136 87.9469 84.3544 88.2095 88.1997Z" fill="black"/>
<path d="M88.5226 87.8394C88.8122 92.008 89.6843 96.7725 93.3007 98.8635C95.9136 100.375 99.2067 99.9781 102.099 99.1194C104.991 98.2608 107.823 96.9712 110.837 96.8264C113.147 96.7153 115.433 97.281 117.743 97.4291C120.053 97.5773 122.571 97.2136 124.218 95.5907C126.575 93.2774 126.144 89.0819 123.912 86.6542C121.679 84.2264 118.187 83.3442 114.884 83.4352C110.844 83.5429 106.328 84.782 103.133 82.3274C100.988 80.6774 100.176 77.8187 98.3716 75.7984C95.358 72.4312 82.0307 67.5724 79.209 73.0609C77.8857 75.6267 83.8995 77.4618 85.2969 79.3238C87.4957 82.2533 88.26 83.9907 88.5226 87.8394Z" fill="#663D5B"/>
<path opacity="0.1" d="M76.2728 116.531C76.4291 115.202 76.867 113.922 77.5574 112.776C78.2478 111.63 79.1748 110.644 80.2764 109.884" fill="black"/>
<path opacity="0.1" d="M114.463 169.274C114.432 169.605 114.352 169.928 114.224 170.234C113.783 171.556 113.252 172.847 112.635 174.096C113.534 174.019 114.275 173.312 114.655 172.497C114.988 171.659 115.171 170.769 115.197 169.867C115.23 169.586 115.238 169.302 115.221 169.019C115.197 168.756 115.029 167.753 114.595 167.931C114.245 168.079 114.47 169.008 114.463 169.274Z" fill="black"/>
<path opacity="0.1" d="M124.824 94.5367C123.174 96.1597 120.656 96.5233 118.346 96.3752C116.036 96.227 113.739 95.6614 111.44 95.7758C108.409 95.9206 105.601 97.2069 102.705 98.0689C99.8094 98.9309 96.5197 99.3282 93.9034 97.8163C90.2904 95.722 89.4149 90.9574 89.1287 86.7922C88.8661 82.9469 88.0984 81.2061 85.8996 78.2733C84.5696 76.4988 79.0474 74.7478 79.6804 72.3639C79.4975 72.5789 79.3393 72.8138 79.209 73.0643C77.8857 75.63 83.8995 77.4652 85.2969 79.3272C87.4957 82.2566 88.26 84.0008 88.5226 87.8428C88.8122 92.0113 89.6843 96.7759 93.3007 98.8669C95.9136 100.379 99.2067 99.9814 102.099 99.1228C104.991 98.2642 107.823 96.9746 110.837 96.8298C113.147 96.7186 115.433 97.2843 117.743 97.4325C120.053 97.5806 122.571 97.217 124.218 95.594C124.686 95.13 125.058 94.5786 125.312 93.971C125.164 94.1719 125.001 94.361 124.824 94.5367Z" fill="black"/>
<path d="M75.5421 125.154L74.3064 127.848L78.2359 127.064L75.5421 125.154Z" fill="#CC818C"/>
<path opacity="0.1" d="M75.5421 125.154L74.5253 127.848H74.3064L75.5421 125.154Z" fill="black"/>
<path opacity="0.1" d="M172.779 247.42C180.404 247.42 186.585 246.571 186.585 245.524C186.585 244.477 180.404 243.628 172.779 243.628C165.155 243.628 158.974 244.477 158.974 245.524C158.974 246.571 165.155 247.42 172.779 247.42Z" fill="#07BEB8"/>
<path opacity="0.1" d="M225.661 252.78C233.285 252.78 239.466 251.932 239.466 250.885C239.466 249.838 233.285 248.989 225.661 248.989C218.036 248.989 211.855 249.838 211.855 250.885C211.855 251.932 218.036 252.78 225.661 252.78Z" fill="#07BEB8"/>
<path opacity="0.1" d="M287.95 245.524C295.575 245.524 301.756 244.675 301.756 243.628C301.756 242.581 295.575 241.733 287.95 241.733C280.326 241.733 274.145 242.581 274.145 243.628C274.145 244.675 280.326 245.524 287.95 245.524Z" fill="#07BEB8"/>
<path opacity="0.1" d="M204.495 267.498C209.914 267.498 214.307 266.895 214.307 266.151C214.307 265.408 209.914 264.805 204.495 264.805C199.076 264.805 194.683 265.408 194.683 266.151C194.683 266.895 199.076 267.498 204.495 267.498Z" fill="#07BEB8"/>
<path opacity="0.1" d="M259.38 266.151C264.799 266.151 269.192 265.548 269.192 264.805C269.192 264.061 264.799 263.458 259.38 263.458C253.961 263.458 249.568 264.061 249.568 264.805C249.568 265.548 253.961 266.151 259.38 266.151Z" fill="#07BEB8"/>
<path d="M225.961 250.46C225.961 250.46 206.599 186.989 228.991 161.567C245.739 142.549 264.754 144.825 273.269 147.176C275.473 147.762 277.522 148.821 279.276 150.279C281.029 151.737 282.445 153.558 283.425 155.617C286.401 162.042 285.866 172.453 264.851 184.632C229.664 205.004 227.476 232.951 227.476 232.951L225.961 250.46Z" fill="#07BEB8"/>
<path d="M270.239 156.18C270.239 156.18 213.165 174.026 225.961 250.46" stroke="#565987" stroke-miterlimit="10"/>
<path d="M236.904 162.577C236.904 162.577 244.759 167.874 242.264 175.83" stroke="#565987" stroke-miterlimit="10"/>
<path d="M264.515 167.291C264.515 167.291 259.71 162.402 253.861 165.099" stroke="#565987" stroke-miterlimit="10"/>
<path d="M241.955 191.872C241.955 191.872 233.516 187.589 231.334 192.952" stroke="#565987" stroke-miterlimit="10"/>
<path d="M221.078 200.795C221.078 200.795 227.412 200.289 227.526 203.32" stroke="#565987" stroke-miterlimit="10"/>
<path d="M225.193 250.965C225.193 250.965 247.867 204.835 254.097 205.845C257.056 206.323 258.42 209.236 259.036 212.159C259.797 215.942 259.359 219.869 257.784 223.392C254.568 230.769 245.924 244.787 225.193 250.965Z" fill="#07BEB8"/>
<path d="M253.911 214.6C253.911 214.6 230.112 249.113 225.513 250.629" stroke="#565987" stroke-miterlimit="10"/>
<path d="M256.1 219.987H250.544" stroke="#565987" stroke-miterlimit="10"/>
<path d="M249.447 232.614L240.739 232.988" stroke="#565987" stroke-miterlimit="10"/>
<path d="M244.147 222.513L245.093 227.048" stroke="#565987" stroke-miterlimit="10"/>
<path d="M234.887 236.318L235.055 240.44" stroke="#565987" stroke-miterlimit="10"/>
<path d="M225.866 250.965C225.866 250.965 203.192 204.835 196.962 205.845C194.003 206.323 192.639 209.236 192.023 212.159C191.251 215.939 191.677 219.865 193.242 223.392C196.457 230.769 205.101 244.787 225.866 250.965Z" fill="#07BEB8"/>
<path d="M197.114 214.6C197.114 214.6 220.913 249.113 225.513 250.629" stroke="#565987" stroke-miterlimit="10"/>
<path d="M194.922 219.987H200.478" stroke="#565987" stroke-miterlimit="10"/>
<path d="M201.579 232.614L210.286 232.988" stroke="#565987" stroke-miterlimit="10"/>
<path d="M206.875 222.513L205.933 227.048" stroke="#565987" stroke-miterlimit="10"/>
<path d="M216.135 236.318L215.967 240.44" stroke="#565987" stroke-miterlimit="10"/>
<path d="M264.784 261.737C265.403 261.235 265.854 260.556 266.077 259.791C266.242 259.016 265.912 258.09 265.175 257.808C264.346 257.491 263.461 258.063 262.791 258.643C262.121 259.222 261.349 259.885 260.471 259.76C260.922 259.351 261.259 258.831 261.45 258.252C261.641 257.673 261.678 257.055 261.558 256.457C261.522 256.209 261.417 255.976 261.255 255.784C260.797 255.292 259.962 255.504 259.41 255.892C257.659 257.124 257.171 259.501 257.164 261.643C256.986 260.868 257.134 260.064 257.13 259.286C257.127 258.508 256.908 257.602 256.241 257.191C255.83 256.963 255.365 256.847 254.895 256.855C254.107 256.828 253.231 256.905 252.692 257.481C252.019 258.195 252.197 259.397 252.78 260.175C253.363 260.952 254.245 261.454 255.056 262C255.711 262.386 256.268 262.917 256.686 263.552C256.736 263.64 256.776 263.732 256.807 263.828H261.74C262.844 263.271 263.868 262.568 264.784 261.737Z" fill="#07BEB8"/>
<path d="M178.389 243.16C179.007 242.657 179.457 241.977 179.679 241.211C179.847 240.436 179.517 239.527 178.776 239.227C177.948 238.911 177.066 239.483 176.392 240.066C175.719 240.648 174.951 241.305 174.076 241.184C174.527 240.772 174.863 240.25 175.053 239.67C175.242 239.089 175.278 238.469 175.157 237.87C175.119 237.623 175.014 237.39 174.854 237.197C174.392 236.705 173.561 236.914 173.008 237.301C171.257 238.534 170.769 240.911 170.759 243.053C170.584 242.281 170.732 241.477 170.729 240.696C170.725 239.914 170.507 239.012 169.837 238.598C169.423 238.375 168.959 238.266 168.49 238.281C167.705 238.251 166.826 238.328 166.291 238.904C165.617 239.621 165.796 240.82 166.375 241.598C166.954 242.376 167.84 242.877 168.655 243.423C169.306 243.812 169.862 244.342 170.281 244.975C170.331 245.064 170.372 245.157 170.402 245.255H175.338C176.445 244.696 177.471 243.992 178.389 243.16Z" fill="#07BEB8"/>
<path d="M207.175 261.737C207.794 261.235 208.245 260.556 208.468 259.791C208.633 259.016 208.303 258.09 207.566 257.808C206.737 257.491 205.852 258.063 205.182 258.643C204.512 259.222 203.741 259.885 202.862 259.76C203.314 259.351 203.652 258.832 203.843 258.253C204.034 257.674 204.072 257.055 203.953 256.457C203.916 256.209 203.811 255.976 203.65 255.784C203.192 255.292 202.357 255.504 201.804 255.892C200.054 257.124 199.565 259.501 199.559 261.643C199.38 260.868 199.528 260.064 199.525 259.286C199.522 258.508 199.303 257.602 198.636 257.191C198.224 256.963 197.76 256.847 197.289 256.855C196.501 256.828 195.626 256.905 195.087 257.481C194.414 258.195 194.592 259.397 195.175 260.175C195.757 260.952 196.639 261.454 197.451 262C198.105 262.386 198.662 262.917 199.08 263.552C199.13 263.64 199.171 263.732 199.202 263.828H204.135C205.238 263.271 206.26 262.568 207.175 261.737Z" fill="#07BEB8"/>
<path d="M288.832 224.183C288.832 224.183 290.684 226.601 287.98 230.244C285.277 233.887 283.048 236.978 283.94 239.254C283.94 239.254 288.021 232.473 291.348 232.379C294.674 232.284 292.499 228.261 288.832 224.183Z" fill="#07BEB8"/>
<path opacity="0.1" d="M288.832 224.183C288.994 224.416 289.121 224.671 289.209 224.941C292.452 228.745 294.176 232.298 291.061 232.389C288.162 232.47 284.684 237.658 283.849 238.968C283.876 239.069 283.909 239.167 283.947 239.264C283.947 239.264 288.028 232.483 291.354 232.389C294.681 232.294 292.499 228.261 288.832 224.183Z" fill="black"/>
<path d="M292.284 227.264C292.284 228.116 292.189 228.806 292.072 228.806C291.954 228.806 291.863 228.106 291.863 227.264C291.863 226.422 291.981 226.816 292.098 226.816C292.216 226.816 292.284 226.422 292.284 227.264Z" fill="#FFD037"/>
<path d="M293.466 228.281C292.718 228.688 292.065 228.934 292.011 228.833C291.957 228.732 292.513 228.314 293.26 227.907C294.008 227.5 293.715 227.796 293.769 227.907C293.822 228.018 294.22 227.873 293.466 228.281Z" fill="#FFD037"/>
<path d="M279.068 224.183C279.068 224.183 277.216 226.601 279.92 230.244C282.623 233.887 284.852 236.978 283.96 239.254C283.96 239.254 279.882 232.473 276.552 232.379C273.222 232.284 275.424 228.261 279.068 224.183Z" fill="#07BEB8"/>
<path opacity="0.1" d="M279.067 224.183C278.905 224.416 278.777 224.671 278.687 224.941C275.448 228.745 273.724 232.298 276.835 232.389C279.738 232.47 283.233 237.658 284.051 238.968C284.024 239.069 283.99 239.168 283.95 239.264C283.95 239.264 279.872 232.483 276.542 232.389C273.212 232.294 275.424 228.261 279.067 224.183Z" fill="black"/>
<path d="M275.636 227.264C275.636 228.116 275.734 228.806 275.852 228.806C275.97 228.806 276.064 228.116 276.064 227.264C276.064 226.412 275.946 226.816 275.828 226.816C275.71 226.816 275.636 226.422 275.636 227.264Z" fill="#FFD037"/>
<path d="M274.458 228.281C275.205 228.688 275.855 228.934 275.912 228.833C275.97 228.732 275.411 228.314 274.663 227.907C273.916 227.5 274.209 227.796 274.151 227.907C274.094 228.018 273.71 227.873 274.458 228.281Z" fill="#FFD037"/>
<path d="M276.226 238.948C276.226 238.948 281.398 238.79 282.96 237.679C284.522 236.567 290.917 235.244 291.304 237.025C291.691 238.807 299.075 245.878 293.237 245.925C287.398 245.972 279.67 245.016 278.115 244.066C276.559 243.117 276.226 238.948 276.226 238.948Z" fill="#A8A8A8"/>
<path opacity="0.2" d="M293.338 245.305C287.499 245.352 279.768 244.396 278.212 243.447C277.03 242.726 276.556 240.137 276.401 238.941H276.226C276.226 238.941 276.562 243.113 278.111 244.059C279.66 245.006 287.394 245.965 293.233 245.918C294.917 245.918 295.499 245.305 295.469 244.416C295.23 244.958 294.59 245.295 293.338 245.305Z" fill="black"/>
</g>
<defs>
<linearGradient id="paint0_linear_594_4229" x1="124.023" y1="263.363" x2="124.023" y2="32.6515" gradientUnits="userSpaceOnUse">
<stop stop-color="#808080" stop-opacity="0.25"/>
<stop offset="0.54" stop-color="#808080" stop-opacity="0.12"/>
<stop offset="1" stop-color="#808080" stop-opacity="0.1"/>
</linearGradient>
<clipPath id="clip0_594_4229">
<rect width="345.926" height="269" fill="white" transform="translate(0.0367432)"/>
</clipPath>
</defs>
</svg>
